name Precision Landing13_filtered_grf.mot
datacolumns 37
datarows 10
range 1.244000 1.248500
endheader
time	1_ground_force_vx	1_ground_force_vy	1_ground_force_vz	1_ground_force_px	1_ground_force_py	1_ground_force_pz	1_ground_torque_x	1_ground_torque_y	1_ground_torque_z	2_ground_force_vx	2_ground_force_vy	2_ground_force_vz	2_ground_force_px	2_ground_force_py	2_ground_force_pz	2_ground_torque_x	2_ground_torque_y	2_ground_torque_z	3_ground_force_vx	3_ground_force_vy	3_ground_force_vz	3_ground_force_px	3_ground_force_py	3_ground_force_pz	3_ground_torque_x	3_ground_torque_y	3_ground_torque_z	4_ground_force_vx	4_ground_force_vy	4_ground_force_vz	4_ground_force_px	4_ground_force_py	4_ground_force_pz	4_ground_torque_x	4_ground_torque_y	4_ground_torque_z
            1.244000	          -16.765073	          612.942608	          132.538651	            0.079942	            0.000000	            0.207801	           -0.358538	           13.108413	            2.834476	            6.747812	          631.206834	           80.388382	           -0.135375	            0.000000	            0.258732	            0.153566	           14.364906	            1.829466	            3.825900	           -0.289254	           -0.390380	            0.353143	            1.255120	            1.891413	           -0.002391	            0.017612	            0.036274	          -16.489990	            0.656597	           -2.573296	           -0.289188	            1.264908	            1.901334	           -0.003561	            0.000142	           -0.000556
            1.244500	          -16.652180	          612.824734	          132.524125	            0.079882	            0.000000	            0.207785	           -0.357342	           13.150715	            2.843859	            6.803719	          631.130819	           80.215584	           -0.135351	            0.000000	            0.258681	            0.154641	           14.344887	            1.823209	            3.838835	           -0.288683	           -0.394327	            0.353141	            1.255118	            1.891416	           -0.002058	            0.017895	            0.035877	          -16.505226	            0.663072	           -2.583214	           -0.289187	            1.264909	            1.901339	           -0.003838	            0.000154	           -0.000601
            1.245000	          -16.530459	          612.757045	          132.491820	            0.079825	            0.000000	            0.207774	           -0.355964	           13.195019	            2.853059	            6.856237	          631.070178	           80.020257	           -0.135325	            0.000000	            0.258633	            0.155587	           14.320732	            1.815881	            3.852668	           -0.288004	           -0.400433	            0.353140	            1.255117	            1.891419	           -0.001706	            0.018163	            0.035524	          -16.519965	            0.668799	           -2.593985	           -0.289185	            1.264909	            1.901345	           -0.004109	            0.000166	           -0.000645
            1.245500	          -16.399680	          612.739457	          132.441609	            0.079771	            0.000000	            0.207768	           -0.354398	           13.241323	            2.862068	            6.905410	          631.024660	           79.802994	           -0.135297	            0.000000	            0.258588	            0.156406	           14.292531	            1.807515	            3.867307	           -0.287195	           -0.408681	            0.353138	            1.255115	            1.891422	           -0.001338	            0.018407	            0.035219	          -16.534206	            0.673713	           -2.605684	           -0.289185	            1.264909	            1.901351	           -0.004372	            0.000178	           -0.000689
            1.246000	          -16.259635	          612.771768	          132.373399	            0.079719	            0.000000	            0.207768	           -0.352634	           13.289612	            2.870875	            6.951299	          630.994065	           79.564425	           -0.135266	            0.000000	            0.258547	            0.157098	           14.260385	            1.798146	            3.882648	           -0.286212	           -0.419078	            0.353137	            1.255114	            1.891425	           -0.000956	            0.018622	            0.034962	          -16.547944	            0.677794	           -2.618369	           -0.289185	            1.264909	            1.901357	           -0.004627	            0.000190	           -0.000732
            1.246500	          -16.110144	          612.853655	          132.287132	            0.079671	            0.000000	            0.207773	           -0.350666	           13.339856	            2.879466	            6.993978	          630.978236	           79.305214	           -0.135234	            0.000000	            0.258510	            0.157668	           14.224400	            1.787810	            3.898587	           -0.285013	           -0.431590	            0.353135	            1.255112	            1.891428	           -0.000563	            0.018800	            0.034756	          -16.561179	            0.681005	           -2.632084	           -0.289185	            1.264909	            1.901363	           -0.004876	            0.000200	           -0.000775
            1.247000	          -15.951058	          612.984680	          132.182773	            0.079626	            0.000000	            0.207782	           -0.348486	           13.392011	            2.887826	            7.033532	          630.977053	           79.026044	           -0.135200	            0.000000	            0.258475	            0.158117	           14.184687	            1.776546	            3.915017	           -0.283551	           -0.446165	            0.353133	            1.255110	            1.891431	           -0.000163	            0.018936	            0.034601	          -16.573908	            0.683313	           -2.646862	           -0.289185	            1.264908	            1.901368	           -0.005116	            0.000211	           -0.000817
            1.247500	          -15.782258	          613.164288	          132.060309	            0.079583	            0.000000	            0.207795	           -0.346088	           13.446022	            2.895938	            7.070052	          630.990426	           78.727608	           -0.135165	            0.000000	            0.258444	            0.158450	           14.141359	            1.764393	            3.931827	           -0.281775	           -0.462727	            0.353131	            1.255108	            1.891435	            0.000240	            0.019023	            0.034497	          -16.586128	            0.684689	           -2.662712	           -0.289184	            1.264908	            1.901374	           -0.005349	            0.000221	           -0.000859
            1.248000	          -15.603662	          613.391804	          131.919741	            0.079543	            0.000000	            0.207812	           -0.343464	           13.501825	            2.903784	            7.103629	          631.018287	           78.410597	           -0.135128	            0.000000	            0.258416	            0.158668	           14.094529	            1.751392	            3.948906	           -0.279642	           -0.481164	            0.353129	            1.255106	            1.891438	            0.000644	            0.019057	            0.034443	          -16.597808	            0.685119	           -2.679812	           -0.289186	            1.264908	            1.901381	           -0.005572	            0.000230	           -0.000900
            1.248500	          -15.415214	          613.666442	          131.761086	            0.079505	            0.000000	            0.207833	           -0.340609	           13.559344	            2.911344	            7.134349	          631.060584	           78.075696	           -0.135090	            0.000000	            0.258392	            0.158776	           14.044310	            1.737582	            3.966139	           -0.277094	           -0.501373	            0.353126	            1.255104	            1.891442	            0.001045	            0.019034	            0.034440	          -16.608973	            0.684577	           -2.697949	           -0.289187	            1.264907	            1.901387	           -0.005785	            0.000238	           -0.000940
